<svg height="512" viewBox="0 0 64 64" width="512" xmlns="http://www.w3.org/2000/svg"><g fill="#57a4ff"><path d="m8 2h48v8h-48z"/><path d="m25 47h14v6h-14z"/><path d="m25 47h14v6h-14z"/></g><path d="m62 6a1 1 0 0 0 -1-1h-4v-3a1 1 0 0 0 -1-1h-48a1 1 0 0 0 -1 1v3h-4a1 1 0 0 0 -1 1v19a24.324 24.324 0 0 0 6.618 17.16l.382 19.859a1 1 0 0 0 1 .981h44a1 1 0 0 0 1-.981l.382-19.859a24.324 24.324 0 0 0 6.618-17.16zm-8.6 35.415a26.971 26.971 0 0 1 -13.4 6.739v-1.154a1 1 0 0 0 -1-1h-14a1 1 0 0 0 -1 1v1.154a26.971 26.971 0 0 1 -13.395-6.739l-.585-30.415h43.96zm-15.4 6.585v4h-12v-4zm-29-45h46v6h-46zm-5 22v-18h3v3a1 1 0 0 0 1 1h.019l.541 28.135a22.691 22.691 0 0 1 -4.56-14.135zm6.981 36-.325-16.939a29.83 29.83 0 0 0 13.344 6.139v2.8a1 1 0 0 0 1 1h14a1 1 0 0 0 1-1v-2.8a29.83 29.83 0 0 0 13.344-6.136l-.325 16.936zm49.019-36a22.691 22.691 0 0 1 -4.56 14.135l.541-28.135h.019a1 1 0 0 0 1-1v-3h3z" fill="#004fac"/><path d="m23 57h-9a1 1 0 0 0 0 2h9a1 1 0 0 0 0-2z" fill="#004fac"/><path d="m28 57h-2a1 1 0 0 0 0 2h2a1 1 0 0 0 0-2z" fill="#004fac"/></svg>